<svg width="12" height="16" viewBox="0 0 12 16" fill="none" xmlns="http://www.w3.org/2000/svg">
<path d="M6 1L6.35355 0.646447C6.15829 0.451184 5.84171 0.451184 5.64645 0.646447L6 1ZM10.6464 6.35355C10.8417 6.54882 11.1583 6.54882 11.3536 6.35355C11.5488 6.15829 11.5488 5.84171 11.3536 5.64645L10.6464 6.35355ZM0.646447 5.64645C0.451184 5.84171 0.451184 6.15829 0.646447 6.35355C0.841709 6.54882 1.15829 6.54882 1.35355 6.35355L0.646447 5.64645ZM5.5 15C5.5 15.2761 5.72386 15.5 6 15.5C6.27614 15.5 6.5 15.2761 6.5 15H5.5ZM5.64645 1.35355L10.6464 6.35355L11.3536 5.64645L6.35355 0.646447L5.64645 1.35355ZM5.64645 0.646447L0.646447 5.64645L1.35355 6.35355L6.35355 1.35355L5.64645 0.646447ZM5.5 1V8H6.5V1H5.5ZM5.5 8V15H6.5V8H5.5Z" fill="white"/>
</svg>
